# Blender 5.2.0 LTS
# www.blender.org
mtllib boneclaw prob perfect mag. bolt.mtl
o maybe_correct_sized_bc_body.003
v -0.153565 -0.025107 -0.000032
v -0.124813 -0.033916 -0.000032
v -0.153565 -0.025107 0.098772
v -0.181736 -0.035308 0.098772
v -0.181736 -0.035308 -0.000032
v -0.124813 -0.033916 0.098772
v -0.143593 -0.043887 -0.068453
v -0.143593 -0.043887 -0.000032
v -0.133622 -0.062668 -0.000032
v -0.142664 -0.081913 -0.068453
v -0.133622 -0.062668 -0.068453
v -0.142664 -0.081913 -0.000032
v -0.124813 -0.033916 -0.000032
v -0.114609 -0.062203 -0.000032
v -0.124813 -0.033916 0.098772
v -0.114609 -0.062203 0.098772
v -0.123419 -0.090955 -0.000032
v -0.123419 -0.090955 0.098772
v -0.171996 -0.044582 -0.000032
v -0.153332 -0.034613 -0.000032
v -0.171996 -0.044582 -0.068453
v -0.153332 -0.034613 -0.068453
v -0.143593 -0.043887 -0.068453
v -0.143593 -0.043887 -0.000032
v -0.180341 -0.092346 0.098772
v -0.200051 -0.064291 0.098772
v -0.181736 -0.035308 0.098772
v -0.123419 -0.090955 0.098772
v -0.151476 -0.110549 0.098772
v -0.124813 -0.033916 0.098772
v -0.114609 -0.062203 0.098772
v -0.153565 -0.025107 0.098772
v -0.181039 -0.063827 -0.068453
v -0.171996 -0.044582 -0.068453
v -0.171996 -0.044582 -0.000032
v -0.181039 -0.063827 -0.000032
v -0.171067 -0.082607 -0.068453
v -0.171067 -0.082607 -0.000032
v -0.181736 -0.035308 0.098772
v -0.181736 -0.035308 -0.000032
v -0.200051 -0.064291 0.098772
v -0.200051 -0.064291 -0.000032
v -0.180341 -0.092346 0.098772
v -0.180341 -0.092346 -0.000032
v -0.171067 -0.082607 -0.068453
v -0.151938 -0.091652 -0.068453
v -0.171067 -0.082607 -0.000032
v -0.151938 -0.091652 -0.000032
v -0.142664 -0.081913 -0.068453
v -0.142664 -0.081913 -0.000032
v -0.123419 -0.090955 -0.000032
v -0.151476 -0.110549 -0.000032
v -0.123419 -0.090955 0.098772
v -0.151476 -0.110549 0.098772
v -0.180341 -0.092346 0.098772
v -0.180341 -0.092346 -0.000032
v -0.142664 -0.081913 -0.000032
v -0.151938 -0.091652 -0.000032
v -0.151476 -0.110549 -0.000032
v -0.123419 -0.090955 -0.000032
v -0.114609 -0.062203 -0.000032
v -0.133622 -0.062668 -0.000032
v -0.143593 -0.043887 -0.000032
v -0.124813 -0.033916 -0.000032
v -0.153332 -0.034613 -0.000032
v -0.181736 -0.035308 -0.000032
v -0.153565 -0.025107 -0.000032
v -0.171996 -0.044582 -0.000032
v -0.181039 -0.063827 -0.000032
v -0.200051 -0.064291 -0.000032
v -0.180341 -0.092346 -0.000032
v -0.171067 -0.082607 -0.000032
vn -0.0251 0.9997 -0.0000
vn 0.7802 0.6255 0.0002
vn -0.8099 0.5866 -0.0000
vn 0.7802 0.6255 -0.0000
vn 0.9997 0.0244 -0.0000
vn 0.7802 0.6255 -0.0001
vn 0.8099 -0.5866 -0.0000
vn 0.7803 0.6254 -0.0000
vn -0.0242 0.9997 -0.0001
vn -0.8098 0.5867 -0.0000
vn -0.8098 0.5867 -0.0001
vn -0.0243 0.9997 -0.0000
vn 0.7800 0.6257 0.0001
vn 0.7800 0.6257 -0.0000
vn -0.0000 -0.0000 1.0000
vn -0.9997 -0.0244 -0.0000
vn -0.8100 0.5864 -0.0000
vn -0.7803 -0.6254 -0.0000
vn -0.9997 -0.0245 -0.0000
vn -0.7802 -0.6255 -0.0000
vn 0.0247 -0.9997 -0.0000
vn 0.8096 -0.5869 -0.0000
vn 0.8097 -0.5869 -0.0000
vn 0.0241 -0.9997 -0.0000
vn 0.0243 -0.9997 -0.0000
vn -0.7801 -0.6256 -0.0000
vn -0.0000 -0.0000 -1.0000
vt 30.000000 -51.015701
vt 30.000000 -50.912102
vt 29.969000 -51.015701
vt 30.031000 -50.912102
vt 30.031000 -51.015701
vt 29.969000 -50.912102
vt 30.015699 -51.000000
vt 30.087900 -50.981400
vt 30.015699 -50.981400
vt 30.087900 -51.000000
vt 30.015699 -51.018600
vt 30.087900 -51.018600
vt 30.015699 -50.969002
vt 29.912100 -50.969002
vt 29.912100 -51.000000
vt 30.015699 -51.030998
vt 29.912100 -51.030998
vt 30.018600 -51.087898
vt 30.018600 -51.015701
vt 30.000000 -51.087898
vt 29.981400 -51.087898
vt 29.981400 -51.015701
vt 29.969000 -51.030998
vt 29.969000 -50.969002
vt 29.956100 -51.000000
vt 30.031000 -51.030998
vt 30.000000 -51.043900
vt 30.031000 -50.969002
vt 30.043900 -51.000000
vt 30.000000 -50.956100
vt 29.984301 -50.981400
vt 29.912100 -50.981400
vt 29.984301 -51.000000
vt 29.912100 -51.018600
vt 29.984301 -51.018600
vt 29.984301 -50.969002
vt 30.087900 -50.969002
vt 30.087900 -51.030998
vt 29.984301 -51.030998
vt 29.981400 -51.018600
vt 30.000000 -51.026299
vt 29.973700 -51.000000
vt 29.981400 -50.981400
vt 30.000000 -50.973701
vt 30.018600 -50.981400
vt 30.026300 -51.000000
vt 30.018600 -51.018600
s 1
usemtl Meshpart1Mtl.006
f 1/1/1 3/2/1 2/3/2
f 1/1/1 4/4/3 3/2/1
f 5/5/3 4/4/3 1/1/1
f 2/3/2 3/2/1 6/6/4
f 9/7/5 7/8/4 8/9/6
f 7/8/4 9/7/5 11/10/5
f 12/11/7 11/10/5 9/7/5
f 11/10/5 12/11/7 10/12/7
f 13/13/8 15/14/8 14/7/5
f 14/7/5 15/14/8 16/15/5
f 14/7/5 16/15/5 17/16/7
f 17/16/7 16/15/5 18/17/7
f 20/1/9 21/18/10 19/19/11
f 21/18/10 20/1/9 22/20/12
f 20/1/9 23/21/13 22/20/12
f 23/21/13 20/1/9 24/22/14
f 25/23/15 27/24/15 26/25/15
f 27/24/15 25/23/15 28/26/15
f 28/26/15 25/23/15 29/27/15
f 30/28/15 27/24/15 28/26/15
f 30/28/15 28/26/15 31/29/15
f 27/24/15 30/28/15 32/30/15
f 33/15/16 35/31/3 34/32/17
f 35/31/3 33/15/16 36/33/16
f 37/34/18 36/33/16 33/15/16
f 36/33/16 37/34/18 38/35/18
f 40/36/3 41/10/19 39/37/10
f 42/33/16 43/38/20 41/10/19
f 42/33/16 41/10/19 40/36/3
f 44/39/20 43/38/20 42/33/16
f 46/20/21 47/22/20 45/21/20
f 47/22/20 46/20/21 48/1/21
f 49/18/22 48/1/21 46/20/21
f 48/1/21 49/18/22 50/19/22
f 51/5/23 53/4/23 52/1/24
f 52/1/24 53/4/23 54/2/25
f 56/3/26 54/2/25 55/6/26
f 52/1/24 54/2/25 56/3/26
f 57/40/27 59/27/27 58/41/27
f 59/27/27 57/40/27 60/23/27
f 57/40/27 61/25/27 60/23/27
f 61/25/27 57/40/27 62/42/27
f 63/43/27 61/25/27 62/42/27
f 61/25/27 63/43/27 64/24/27
f 65/44/27 64/24/27 63/43/27
f 67/30/27 64/24/27 65/44/27
f 65/44/27 66/28/27 67/30/27
f 66/28/27 65/44/27 68/45/27
f 70/29/27 68/45/27 69/46/27
f 68/45/27 70/29/27 66/28/27
f 71/26/27 70/29/27 72/47/27
f 72/47/27 70/29/27 69/46/27
f 72/47/27 59/27/27 71/26/27
f 59/27/27 72/47/27 58/41/27
